<svg xmlns="http://www.w3.org/2000/svg" version="1.1" width="600px" height="600px" viewBox="0 0 200 200" style="overflow:hidden!important;"><g id="svga-group-wrapper"><g id="svga-group-backs-single"></g><g id="svga-group-humanwrap-move" transform="matrix(1,0,0,1,0,0)"><g id="svga-group-humanwrap" transform="matrix(0.8499994000000002,0,0,0.8499994000000002,15.079945230123116,18.637573405586224)"><g id="svga-group-hair-back-move" transform="matrix(1,0,0,1,0,0)"><g id="svga-group-hair-back"></g></g><g id="svga-group-humanbody-back"><path id="SvgjsPath11070" d="M166.5 181.1c-10.9-6.6-27.6-8.4-35-12.1-4.9-2.5-9.1-4.7-8.9-17.8s1.9-42.4 1.9-42.4H75.4s1.6 29.4 1.9 42.4-4.2 15.6-8.9 17.8c-7.4 3.5-24.1 5.4-35 12.1-10.8 6.6-10 18.9-10 18.9v19.7h153.3V200c-.1 0 .7-12.3-10.2-18.9z" fill="#f0c7b1" stroke-width="none" opacity="1"></path></g><g id="svga-group-chinshadow-single"><path id="SvgjsPath11066" d="M77.3 153c2.7 4.4 5.1 8.5 5.8 9.8 1.5 2.6 9.5 5.9 16.8 5.9 7.5 0 15.4-3.3 16.9-5.9.7-1.3 3.1-5.4 5.8-9.9v-1.7c.2-13.1 1.9-42.4 1.9-42.4H75.4s1.6 29.4 1.9 42.4v1.8z" fill="#d19271" stroke-width="none" opacity="0.65"></path></g><g id="svga-group-humanbody-front"><path id="SvgjsPath11071" d="M78.7 156.8c.5 4.8 1.7 9.4 3.1 13.9.8 2.3 1.6 4.6 2.6 6.9.8 2 1.7 4.2 3.1 5.9.3.4 1 0 .9-.5-.5-2.2-1.6-4.3-2.4-6.4-.9-2.2-1.7-4.4-2.5-6.6-1.5-4.4-2.8-8.9-4.1-13.3-.2-.4-.8-.3-.7.1zm41.3-1c-1.3 8.2-3.9 16.1-5.4 24.2-.1.4.4.5.6.2 3.1-7.7 4.1-16.1 5.1-24.3-.1-.2-.3-.2-.3-.1zm-25.8 11.9c-.9 3.6 1.9 8.6 6.2 7.6.5-.1.4-.8 0-1-1.4-.5-2.9-.9-3.9-2.1-1.1-1.2-1.5-2.9-1.4-4.5 0-.4-.8-.5-.9 0z" fill="#d19271" stroke-width="none" opacity="1"></path><path id="SvgjsPath11072" d="M177.3 219.7c-.1-6.6-.3-13.1-.3-19.7l-.3-.3c.1 0 .1 0 .2.1s.1.2.1.1v-1.4c0-.5-.1-.9-.1-1.4-.1-.9-.3-1.9-.5-2.8-.5-1.8-1.1-3.6-2-5.3-1.7-3.4-4.4-6.2-7.7-8.1-3.6-2.2-7.6-3.8-11.6-5.1-4-1.3-8.1-2.4-12.1-3.5-4-1.2-8.1-2.2-11.8-4.2-1.9-1-3.6-2.1-4.8-3.6-1.2-1.6-1.9-3.5-2.3-5.5-.8-4-.4-8.2-.3-12.4l.7-12.6 1.5-25.2.1-1.4h-1.4c-8.2 0-16.4 0-24.6.1l-24.6.3h-.9l.1.9c.8 11.9 1.6 23.8 2.1 35.7.1 3 .3 6 .2 8.9-.1 2.9-.4 5.9-1.6 8.6-.6 1.3-1.4 2.5-2.4 3.5s-2.3 1.8-3.6 2.4c-2.6 1.3-5.4 2.2-8.3 3-5.8 1.5-11.6 2.8-17.3 4.7-2.8.9-5.7 2-8.4 3.4-1.3.7-2.7 1.4-4 2.4-1.3.9-2.4 1.9-3.5 3.1-2.1 2.3-3.6 5.2-4.5 8.1-.5 1.5-.8 3-1 4.6-.1.8-.1 1.6-.1 2.4v2.3l-.2 17.9v1.3h1.4l38.3.2c12.8.1 25.5.1 38.3 0 12.8-.1 25.6-.1 38.3-.3 12.8-.2 25.6-.5 38.3-.7h.6v-.5zm-77.2-1.6H61.8l-37 .2-.1-16.6v-2.2c0-.7 0-1.4.1-2.1.1-1.4.4-2.8.8-4.2.8-2.7 2.1-5.3 3.9-7.5.9-1.1 2-2.1 3.1-2.9 1.1-.9 2.4-1.6 3.7-2.3 2.6-1.4 5.3-2.5 8.1-3.5 5.6-2 11.4-3.4 17.1-5.1 2.9-.8 5.8-1.7 8.5-3.1 1.3-.7 2.7-1.5 3.8-2.6 1.1-1.1 2-2.4 2.6-3.9 1.2-2.9 1.5-5.9 1.6-8.9 0-3-.1-6-.2-9l-1.3-34.8 23.5.4c7.7.1 15.4.1 23.1.1-.4 7.9-.8 15.9-1.1 23.8-.2 4.2-.2 8.4-.3 12.6 0 4.2-.2 8.5.8 12.8.5 2.1 1.3 4.2 2.8 6 1.4 1.7 3.4 2.9 5.3 3.8 3.9 1.9 8 2.8 12.1 3.8s8.2 2 12.2 3.3c4 1.3 7.9 2.8 11.5 5 3.2 1.9 5.8 4.7 7.5 8 .9 1.6 1.5 3.4 1.9 5.2.2.9.4 1.8.4 2.7.1.5.1.9.1 1.4V200l-.3 19c-12.6-.2-25.1-.5-37.7-.7-12.7-.1-25.5-.1-38.2-.2z" fill="#c27b55" stroke-width="none" opacity="1"></path></g><g id="svga-group-clothes-single"><path id="SvgjsPath10956" d="M100.8 184.4c-1.1-3-8.2-7.8-13.2-10.6s-7-4.9-10-8.8c-1.8-3.6-1-8.9-1-8.9-.1-4.7-.6-9.5-.9-14.7-8.2-1.1-13.1 3.7-14 4.6-6.5 6.3-3.1 8.5-5.7 11.5-9.2 2.1-7.1 14.2-10.7 15-8.7 1.9-21.2 7-24.2 21 0 0-1.6 9.2-1.6 26.7h160.7c0-17.5-1.6-26.7-1.6-26.7-3.2-15.2-17.6-19-26.1-21.4-1.4-.6.2-5.2-2.5-10.5-1.4-2.7-3.9-6.5-9.3-7.8 0 0-1.2-6.6-5.4-9.9-4.2-3.3-11.2-2.5-11.2-2.5s-.3 14.1-.3 16.1c0 3.2-.2 4.9-1.6 6.6s-4.4 3.9-6.9 7.5-10.1 7.5-11.7 9c-1.4 1.4-2.8 3.8-2.8 3.8z" fill="#386e77" stroke-width="none" opacity="1"></path><path id="SvgjsPath10957" d="M105.6 187.4c-.6.6-1.7 3.4-1.8 5.7s1.8 11.5 2.1 13.4-1 7.4-1 8.5 2.8 2.8 3.1 1.7c.3-1.1 1.2-8.4.2-10.9s-2.2-10.1-2.2-11.6 1.1-5.6 1.6-6.5c0 0 .2-.8-.6-.9-.8-.1-1.4.6-1.4.6z" fill="#d6d6d6" stroke-width="none" opacity="1"></path><path id="SvgjsPath10958" d="m95.6 186.8.1-.2s1.8-1.3 1.9.9c0 0-1.2 2.8-1.2 4.8s2.2 11.9 2.5 14.1-2.7 10.4-3.1 10.5-2.1-.9-2.6-1.3c-.4-.4 2.5-6.9 2.8-9.9.3-2.9-.4-8.7-1.2-12.2-.8-3.5.4-5.9.8-6.6v-.1z" fill="#d6d6d6" stroke-width="none" opacity="1"></path><path id="SvgjsPath10959" d="M181.4 204.3c-.2-2.6-.4-5.2-.7-7.9l-.2-2-.1-1v-.3c0-.1 0-.2-.1-.3l-.1-.5c-.3-1.4-.7-2.7-1.2-4-1.1-2.6-2.6-5-4.4-7.1-1.9-2.1-4.1-3.8-6.5-5.2-4.6-2.7-9.6-4.2-14.5-5.5v-.1c-.1-.4-.1-.9-.1-1.4-.1-1-.1-2-.3-3.1-.3-2.1-1.1-4.2-2.1-6-1-1.8-2.4-3.6-4.1-4.9-1.5-1.2-3.2-2-5-2.6-.4-1.4-.8-2.8-1.4-4.1-.7-1.6-1.6-3.1-2.9-4.4-1.3-1.4-3.4-2.5-5-3-5.1-1.2-8.6-.4-8.6-.4s-1.2 9.6-2.9 22.5c0 0-3.9 4.9-5.3 6.8-.4.4-.7 1-1.1 1.4-.2.2-.3.4-.5.6l-.6.6c-.8.8-1.7 1.5-2.6 2.2-1.8 1.4-3.8 2.7-5.7 4-.5.3-1 .7-1.4 1.1-.5.4-.8.9-1.2 1.3-.4.5-.7.9-1 1.4l-.5.8-.2.4-.1.1-.2-.3-.3-.6c-.2-.4-.5-.7-.8-1l-1.8-1.8c-1.3-1.1-2.6-2.2-4-3.2s-2.8-1.9-4.2-2.8c-1.4-.9-2.9-1.7-4.2-2.7-2.7-2-4.5-4.6-6.6-7.1-1.1-1.3-1.7-3.5-1.9-4.9-.1-1 .6-10.8-.2-17.9 0-.4-.7-.9-5.6-1.1-5 .1-8.8 3.3-10.4 4.9-1.5 1.6-3.1 3.3-3.9 5.6-.4 1.1-.5 2.4-.7 3.4-.1.9-.3 1.4-.7 1.9-1.7.4-3.3 1.3-4.5 2.5-1.4 1.4-2.3 3-2.9 4.7-.7 1.7-1.1 3.4-1.5 4.9-.2.8-.5 1.5-.8 2.1-.1.3-.3.4-.4.5 0 0-.1 0-.1.1l-.6.1c-3.3.8-6.6 1.9-9.8 3.4-3.1 1.6-6 3.6-8.4 6.2-2.4 2.6-4.2 5.7-5.3 9-.3.8-.5 1.7-.7 2.5l-.1.7c0 .1 0 .2-.1.4v.3l-.2 1.3c-.2 1.7-.3 3.4-.5 5-.5 6.7-.6 13.4-.5 20.1 0 .4.1 1.3.5 1.3 13.4-.2 160.9.2 160.9.2.8 0 1.5-.7 1.5-1.5-.1-5-.2-10.3-.6-15.6zm-27.8-33.4zm-28.8-26.1c1 .6 4.7 2.5 6 5.1.1.8.2 1.8 0 2.6s-.6 1.5-1.1 2.3c-2.1 2.6-6.1 6.3-6.5 6.8 5.1-8.8 1.6-16.8 1.6-16.8zm-50.4 17.7c.9 1.4 4 4.3 5 5.5-.4-.3-3.9-3-4.3-3.2-1.2-.8-1.8-1.7-2.7-2.9-1.8-2.2-2.7-5.1-3.4-8-.3-1.4-.6-2.9.3-3.8 2.2-1.5 5.9-2 6.1-2.1.2 2.7-3.2 5.8-3.1 8.5-.1.3-.1.4-.1.7v.8c.1.5.2 1 .3 1.4.3.7 1.4 2.3 1.9 3.1zM48 171.8c.5-.9.8-1.8 1-2.6.5-1.7.8-3.2 1.4-4.7.5-1.5 1.3-2.8 2.3-3.8s2.3-1.7 3.7-2c.2 0 .3-.1.5-.2.1 1.1.2 2.2.4 3.3.3 1.7.7 3.4 1.4 5 .3.9.8 1.6 1.2 2.4.5.7 1 1.5 1.5 2.2 2.3 2.8 5.1 4.8 8.2 6.4 3.1 1.6 6.3 2.8 9.7 3.4-3.1-1.4-6.1-3-8.9-4.8-1.4-.9-2.8-1.8-4-2.9-1.3-1.1-2.5-2.2-3.4-3.4-.5-.6-1-1.3-1.4-1.9-.4-.7-.8-1.4-1.1-2.1-.7-1.4-1.1-3.1-1.6-4.6-.4-1.4-.7-2.9-.9-4.3.1-.2-.8-5.1 4.4-9.9 1.4-1.5 3-2.8 4.6-3.8 4.2-2.4 6.8-1.4 8.1-1.2.1 2 .2 3.1.3 5.1-.3.1-4.2 1-4.5 1.1-.7.3-1.5.5-2.2 1.1-.7.5-1.1 1.5-1.2 2.3-.1.9 0 1.7.1 2.5.4 3.1 1.3 6.3 3.3 8.9 1 1.3 2.3 2.4 3.6 3.2l3.9 2.4c1.3.8 2.6 1.5 3.9 2.2.8.6 1.5 1.2 2.3 1.7 1.4 1 2.9 1.8 4.4 2.6 1.4.8 2.9 1.7 4.3 2.6s2.8 1.9 4.1 2.9c.7.5 1.3 1.1 1.9 1.7.3.3.6.6.8.9.1.2.2.3.3.5l.2.3c.1.1.2.3.3.4 0 0 .1 0 .2-.1v-.1l.1-.1.1-.2.2-.4.5-.7c.3-.5.7-.9 1.1-1.4.4-.4.8-.9 1.2-1.2.4-.3.9-.7 1.4-1 2-1.2 4-2.4 5.9-3.8 1-.7 1.9-1.4 2.8-2.2.2-.2.4-.4.7-.6.2-.2.4-.4.6-.7.4-.5.7-.9 1.1-1.4 1.5-1.7 3.2-3.3 4.9-4.9l2.6-2.4c.7-.7 3.2-2.8 3.6-3.2 1.5-1.3 2.8-2.7 3.8-4.5 1-1.8.9-4 .2-6.1-1.1-2.4-5.6-5-6.9-5.8l-.1-2.5c.2.1 4.4-.9 8.1 1.4 2.5 1.6 4.6 5.3 5.3 6.7.6 1.4 1.1 2.9 1.4 4.4.1.5.5.9 1 1.1.1 0 .1 0 .2.1-.2 2-.6 4-1.4 5.8-.6 1.5-1.3 2.9-2.3 4-1 1.2-2.2 2.3-3.4 3.3-.6.5-1.2 1-1.8 1.6l-1.9 1.5c-1.3 1-2.6 2-3.9 2.9-2.6 1.9-5.3 3.8-7.9 5.8 3.1-1.3 6-2.8 8.8-4.5 2.8-1.7 5.6-3.6 8.1-5.8.6-.6 1.3-1.1 1.8-1.7l.9-.9.8-1c1.1-1.4 1.8-3 2.3-4.7.6-2 .8-4 .7-6.1 1.4.5 2.6 1.1 3.7 2.1 1.4 1.1 2.4 2.6 3.3 4.2.9 1.6 1.5 3.3 1.7 5.1.1.9.2 1.8.2 2.8 0 .5 0 1 .1 1.6 0 .3.1.6.2 1.1.1.2.2.5.4.7l.1.1-1.4 1.4c-.9.8-1.9 1.6-2.8 2.4-1.9 1.6-3.9 3.1-5.9 4.5-2 1.4-4 2.9-6.1 4-1.1.6-2.1 1.1-3.2 1.5-1.1.4-2.3.8-3.5 1.1-2.4.7-4.8 1.3-7.2 1.8-2.4.6-4.8 1.1-7.2 1.5l-3.6.6c-.6.1-1.2.1-1.7.1-.6 0-1.1-.2-1.6-.4l-.2-.1c.3-1.1.6-2.3 1-3.3.1-.2 0-.5-.1-.7s-.4-.3-.7-.3c-.5 0-.9.3-1.2.6.3-.4.8-.6 1.2-.6.2 0 .5.1.6.3.1.2.2.4.1.7-.5 1.2-.8 2.4-1.2 3.7-.3 1.2-.6 2.6-.4 3.9.2 2.6.6 5.1 1.1 7.7.1.6.3 1.3.4 1.9l.3.9c.1.3.2.6.2.9.2 1.2.2 2.5.2 3.8-.1 1.3-.2 2.6-.3 3.8-.1.6-.2 1.3-.3 1.9 0 .1-.1.3-.1.4-.1 0-.4 0-.6-.1-.5-.2-1-.6-1.3-1-.1-.1-.1-.2-.2-.3v-.3c0-.3.1-.6.1-.9.2-1.3.4-2.5.6-3.8.1-.6.2-1.3.2-1.9 0-.6 0-1.4-.1-2l-.8-3.8c-.5-2.5-1.1-5.1-1.4-7.6-.1-.6-.1-1.3-.1-1.9 0-.5.1-.9.2-1.4 0 0 .1-.4.1-.5.2-.6.3-1.2.6-1.9-.2.6-.4 1.2-.6 1.9 0 .1-.1.3-.1.4-1-.6-2.1-.9-3.3-1.1-1.3-.2-2.5-.3-3.8-.5.2-.8.4-1.5.7-2.2 0-.2-.1-.5-.2-.7s-.2-.4-.5-.6c-.5-.2-1 0-1.4.3.4-.2.9-.4 1.3-.2s.5.8.5 1.2c-.5 1.2-1 2.4-1.2 3.8-.1.6-.2 1.4-.1 2 .1.7.2 1.3.3 2 .4 2.6.9 5.2 1.4 7.8l.3 1.9c.1.6.2 1.3.2 1.9-.1 1.2-.4 2.5-.8 3.7-.4 1.2-.8 2.5-1.2 3.7-.2.6-.5 1.2-.7 1.8-.1.1-.1.2-.2.4-.2-.1-.4-.1-.7-.3-.3-.1-.6-.3-.8-.5-.1-.1-.2-.2-.4-.3l-.1-.1c0-.2.1-.5.2-.8l.3-.9 1.3-3.7c.4-1.3.8-2.5 1-3.9.2-1.4.1-2.7 0-4-.2-2.6-.7-5.2-1.2-7.8-.6-1.8-.6-3.9-.1-5.7h.1s0-.1-.1-.1c.2-.6.4-1.2.7-1.8-.3.5-.6 1.1-.8 1.7-.5-.6-.8-1.4-.6-1.9.2-.6.8-1 1.6-.9.7 0 1.4.4 2 .9.3.3.5.6.6 1 .1.3-.1.7-.5 1 .2 0 .5-.1.7-.3s.3-.5.3-.7c0-.5-.2-1-.5-1.4-.6-.8-1.5-1.4-2.5-1.5-.5 0-1.1.1-1.6.4s-.8.8-.8 1.4c-.1 1.1.6 1.8 1.4 2.2-.1.4-.2.7-.3 1.1l-5.5-.7c-2.6-.4-5.2-.6-7.8-1-2.6-.4-5.2-.8-7.7-1.3-1.3-.2-2.5-.5-3.7-.9-1.2-.3-2.4-.9-3.6-1.4-2.4-1-4.7-2.3-6.9-3.5-2.3-1.3-4.5-2.6-6.7-4-1.1-.7-2.2-1.4-3.2-2.2l-1.5-1.2-.6-.6c-.1-1 .1-1.3.3-1.6zm52 47.5-20.1.2-20.1.1c-13.2.1-26.3 0-39.5-.2.1-6.4.4-12.9 1.1-19.3.2-1.6.4-3.3.6-4.9l.2-1.2v-.3c0-.1 0-.2.1-.3l.1-.6c.2-.8.4-1.5.7-2.3 1.1-3 2.8-5.7 5-8s4.9-4.1 7.8-5.5c2.9-1.4 6-2.5 9.1-3.2l.6-.1c.4-.1.7-.2 1-.5.2-.1.3-.2.4-.4.5.8 1.2 1.4 1.9 2.1 1 .9 2 1.8 3 2.6 2.1 1.6 4.2 3.1 6.5 4.6 2.2 1.4 4.5 2.7 6.9 3.9 1.2.6 2.4 1.1 3.8 1.5 1.3.4 2.6.7 3.9 1 5.2 1 10.4 1.6 15.7 1.9 2.2.1 3.4.2 5.5.2-.1 1.2 0 2.5.2 3.7.5 2.6.8 5.2.9 7.8.1 1.3.1 2.6-.1 3.9-.2 1.2-.6 2.5-1 3.7l-1.3 3.7c-.1.3-.2.6-.3 1-.1.3-.2.6-.2 1.1v.3c0 .1.1.2.1.2l.1.1c.1.1.2.1.2.2.1.1.3.2.4.3.3.2.6.4.9.5.3.2.6.3 1.1.4h.4c.2-.1.2-.1.3-.2.1-.1.2-.2.2-.3.1-.2.2-.3.2-.5.3-.6.5-1.2.7-1.9.4-1.2.8-2.5 1.2-3.8.3-1.3.7-2.6.8-4 0-.8-.2-1.4-.3-2-.1-.6-.2-1.3-.4-1.9-.5-2.6-1.1-5.1-1.6-7.7-.1-.6-.2-1.3-.3-1.9-.1-.6-.1-1.3 0-1.9 0-.2.1-.4.1-.6 2.4.1 4.9-.1 7.2.7-.1.5-.2.9-.2 1.4-.1.6 0 1.3.1 1.9.3 2.6.7 5.1 1.1 7.7l.6 3.8c.2 1.2-.1 2.5-.3 3.7l-.7 3.8c-.1.3-.1.6-.1 1 0 .1 0 .5.1.7.1.2.2.4.3.5.5.6 1.1 1 1.7 1.3.3.1.7.3 1.3.2.3-.1.6-.4.7-.6.1-.2.1-.4.1-.5.1-.7.2-1.3.3-2 .2-1.3.2-2.6.3-3.9 0-1.3 0-2.6-.3-3.9-.1-.3-.2-.7-.3-1l-.3-.9c-.2-.6-.4-1.2-.5-1.9-.6-2.5-1.1-5-1.5-7.6-.2-1-.1-2.1.2-3.1.6.3 1.3.5 1.9.6.3.1.7.1 1 .1h1c1.3 0 2.5-.2 3.8-.3 5-.6 9.9-1.6 14.7-2.9 1.2-.4 2.4-.7 3.6-1.2 1.2-.4 2.4-1 3.5-1.7 2.2-1.3 4.2-2.8 6.1-4.4 1.9-1.6 3.8-3.2 5.6-5 .9-.9 1.8-1.8 2.6-2.8.4-.5.8-1 1.2-1.6.2.1.4.3.6.4.1 0 .1.1.2.1 5 1.4 9.9 2.9 14.2 5.5 4.3 2.5 7.7 6.2 9.6 10.7.4 1.1.8 2.3 1.1 3.5l.1.4v.4l.1.9.2 1.9c.3 2.6.5 5.1.7 7.7.3 4.7.5 9.4.5 14.1l-38.6.2c-13.2.2-26.6.4-40 .6zm4.7-30.4c-.3-.4-.4-.8-.4-1.1 0-.4.1-.7.3-1 .4-.5 1.2-.7 1.9-.6.7.1 1.5.5 1.8 1.1.2.3.2.6.1 1s-.4.7-.7 1.1c.4-.1.8-.4 1.1-.9.3-.4.3-1.1.1-1.6-.4-1-1.4-1.6-2.4-1.8-.5-.1-1-.1-1.5.1s-1 .5-1.2 1c-.2.4-.3 1-.2 1.5.3.6.7 1 1.1 1.2zM41 209.2c-.7-2.7-1.6-5.3-2.8-7.8-1.2-2.5-2.7-4.9-4.5-7-1.8-2.1-3.8-4.1-6.2-5.4 1.1.8 2.1 1.8 3 2.8 1 1 1.8 2 2.6 3.1 1.6 2.2 3 4.5 4.2 7 .6 1.2 1.2 2.4 1.6 3.7.5 1.2.9 2.6 1.4 3.8.4 1.3.7 2.6 1.1 3.9.3 1.3.6 2.7.9 4-.1-1.4-.3-2.7-.5-4.1-.2-1.3-.4-2.6-.8-4zm125.6-13.9c-1.8 1.9-3.3 4.1-4.5 6.4-1.2 2.3-2.2 4.8-3 7.3-.4 1.2-.6 2.5-1 3.8l-.6 3.9c.4-1.2.7-2.5 1.1-3.7.4-1.2.8-2.5 1.2-3.7.2-.6.5-1.2.7-1.8s.5-1.2.8-1.8c.5-1.2 1.1-2.3 1.7-3.5 1.2-2.2 2.6-4.4 4.2-6.4.8-1 1.7-1.9 2.6-2.9.9-.9 1.9-1.8 3-2.4-2.4 1.1-4.4 2.9-6.2 4.8z" fill="#184f58" stroke-width="none" opacity="1"></path></g><g id="svga-group-head" transform="matrix(1,0,0,1,0,0)"><g id="svga-group-ears-left-move" transform="matrix(1,0,0,1,0,0)"><g id="svga-group-ears-left"><path id="SvgjsPath10972" d="M62 92.9c-.2-.3-3.3-4.3-5.9-6.7-2.6-2.4-3.4-2.4-4.6-.9-1.3 1.5-2.9 9.1-2.5 12.4.4 3.4 3.6 8.7 5.2 11.7 1.7 3 3.3 6.7 5.1 6.3 1.9-.4 4.4-4.6 5.7-7.7 1.3-3.1.5-10.8-3-15.1z" fill="#f0c7b1" stroke-width="none" opacity="1"></path><path id="SvgjsPath10973" d="M65.8 102c.1.9.2 1.7.2 2.6s0 1.7-.2 2.6c-.1.4-.2.9-.3 1.3-.1.4-.3.7-.4 1.1-.3.7-.6 1.4-1 2.1-.7 1.3-1.5 2.6-2.6 3.6-.5.5-1.1 1-1.8 1.3-.4.1-.9.1-1.3 0-.4-.2-.8-.5-1.1-.8-1.2-1.3-1.9-2.8-2.7-4.3-.7-1.5-1.5-2.9-2.2-4.3-.7-1.5-1.5-2.9-2.1-4.4-.3-.8-.7-1.5-.9-2.3-.3-.8-.5-1.6-.6-2.5-.2-1.7 0-3.4.1-5 .2-1.6.5-3.2.8-4.8.2-.8.4-1.6.8-2.3l.3-.6c.1-.2.3-.4.4-.5.2-.3.5-.6.9-.8.3-.2.8-.3 1.2-.3.4.1.8.3 1.1.5.7.4 1.2 1 1.8 1.5 2.2 2.2 4 4.8 5.9 7.2 1.9 2.4 3.2 5.7 3.7 9.1zM55.7 86.4c-1.1-.9-2.4-1.9-3.1-1.2-.2.1-.4.4-.6.6l-.3.3c-.1.1-.1.3-.2.4-.3.6-.5 1.3-.8 2-.5 1.4-.9 2.9-1.1 4.5-.3 1.5-.5 3.1-.4 4.7.1.8.3 1.6.6 2.3.3.8.6 1.5.9 2.2.7 1.5 1.5 2.8 2.3 4.2.8 1.4 1.7 2.7 2.5 4.1.4.7.8 1.4 1.2 2s.8 1.3 1.3 1.7c.5.4.9.6 1.3.4.5-.2.9-.6 1.4-1.1.9-1 1.6-2.1 2.3-3.4.4-.6.7-1.3 1-1.9.2-.3.3-.7.4-1l.2-.5c0-.2.1-.3.1-.5.3-1.4.4-3 .3-4.6s-.4-3.2-.9-4.8c-.5-1.6-1.2-3-2.2-4.2-1.9-2.1-4-4.3-6.2-6.2z" fill="#e1ac8f" stroke-width="none" opacity="1"></path><path id="SvgjsPath10974" d="M51.2 99.4c-.3-2.3-.5-7.8.8-9.6 2.2-2.9 6 6.4 6.9 9.3 0 .1.1.2.1.3.2.3-.1.7-.4.6-.4-.2-.9-.6-1.3-.8-1.1-.5-1.6.5-1.3 1.8.4 1.8 1.4 2.9 2.2 4.3.1.2 0 .4-.2.3-1.6-.9-3.5-4.5-3.1-6.6.3-2 1.9-1.8 3.1-.8-.7-1.7-1.5-3.3-2.5-4.8-.6-.9-1.2-2-2.2-2.2-1.2-.2-1 .3-1.2 1.8-.8 4.8-.3 10.4 2.5 14.5.1.1 0 .2-.1.1-1.8-2.3-3-4.9-3.3-8.2z" fill="#d19271" stroke-width="none" opacity="1"></path></g></g><g id="svga-group-ears-right-move" transform="matrix(1,0,0,1,0,0)"><g id="svga-group-ears-right"><path id="SvgjsPath10975" d="M138 92.9c.2-.3 3.3-4.3 5.9-6.7 2.6-2.4 3.4-2.4 4.6-.9 1.3 1.5 2.9 9.1 2.5 12.4s-3.6 8.7-5.2 11.7c-1.7 3-3.3 6.7-5.1 6.3-1.9-.4-4.4-4.6-5.7-7.7s-.5-10.8 3-15.1z" fill="#f0c7b1" stroke-width="none" opacity="1"></path><path id="SvgjsPath10976" d="M138 92.9c1.9-2.4 3.8-5 5.9-7.2.5-.5 1.1-1.1 1.8-1.5.3-.2.7-.4 1.1-.5.4-.1.9.1 1.2.3.3.2.6.5.9.8.1.1.2.3.4.5l.3.6c.3.7.6 1.5.8 2.3.4 1.6.7 3.2.8 4.8.2 1.6.3 3.3.1 5-.1.9-.4 1.7-.6 2.5-.3.8-.6 1.6-.9 2.3-.7 1.5-1.4 3-2.1 4.4-.8 1.5-1.5 2.9-2.2 4.3-.8 1.4-1.4 3-2.7 4.3-.3.3-.7.6-1.1.8-.4.2-.9.2-1.3 0-.8-.3-1.3-.8-1.8-1.3-1-1.1-1.8-2.3-2.6-3.6-.4-.7-.7-1.4-1-2.1-.2-.4-.3-.7-.4-1.1-.1-.4-.3-.8-.3-1.3-.1-.9-.2-1.7-.2-2.6s.1-1.7.2-2.6c.4-3.4 1.7-6.7 3.7-9.1zm.1.1c-1 1.2-1.7 2.7-2.2 4.2-.5 1.6-.8 3.2-.9 4.8-.1 1.6 0 3.2.3 4.6 0 .2.1.3.1.5l.2.5c.1.3.3.7.4 1 .3.7.6 1.3 1 1.9.7 1.2 1.5 2.4 2.3 3.4.4.5.9.9 1.4 1.1.4.2.8 0 1.3-.4s.9-1 1.3-1.7c.4-.6.8-1.3 1.2-2 .8-1.4 1.7-2.8 2.5-4.1.8-1.4 1.6-2.8 2.3-4.2.4-.7.7-1.5.9-2.2.3-.8.5-1.6.6-2.3.1-1.6-.1-3.2-.4-4.7-.3-1.5-.7-3-1.1-4.5-.2-.7-.5-1.4-.8-2-.1-.1-.1-.3-.2-.4-.1-.1-.1-.2-.3-.3-.2-.2-.4-.5-.6-.6-.7-.6-2 .4-3.1 1.2-2.2 1.5-4.3 3.7-6.2 6.2z" fill="#e1ac8f" stroke-width="none" opacity="1"></path><path id="SvgjsPath10977" d="M148.8 99.4c.3-2.3.5-7.8-.8-9.6-2.2-2.9-6 6.4-6.9 9.3 0 .1-.1.2-.1.3-.2.3.1.7.4.6.4-.2.9-.6 1.3-.8 1.1-.5 1.6.5 1.3 1.8-.4 1.8-1.4 2.9-2.2 4.3-.1.2 0 .4.2.3 1.6-.9 3.5-4.5 3.1-6.6-.3-2-1.9-1.8-3.1-.8.7-1.7 1.5-3.3 2.5-4.8.6-.9 1.2-2 2.2-2.2 1.2-.2 1 .3 1.2 1.8.8 4.8.3 10.4-2.5 14.5-.1.1 0 .2.1.1 1.8-2.3 3-4.9 3.3-8.2z" fill="#d19271" stroke-width="none" opacity="1"></path></g></g><g id="svga-group-faceshape-wrap"><g id="svga-group-faceshape-single"><path id="SvgjsPath11050" d="M143.1 82v-.3c-1.3-29.9-20.7-46.4-43.2-46.4S58 51.7 56.7 81.7v.3c0 2.2-.4 18.8 1.4 25.3 2 7 7.7 14.1 11.2 19 3.5 4.9 12.1 18.7 13.6 21.3s9.5 5.9 16.8 5.9c7.4 0 15.3-3.3 16.8-5.9 1.5-2.6 10.1-16.4 13.6-21.3 3.5-4.9 9.2-12 11.2-19 2.2-6.5 1.9-23.2 1.8-25.3z" fill="#f0c7b1" stroke-width="none" opacity="1"></path><path id="SvgjsPath11051" d="M116.5 147.6c1.5-2.6 10.1-16.4 13.6-21.3 3.5-4.9 9.2-12 11.2-19 2.2-6.5 1.9-23.2 1.8-25.3v-.3c-1.3-29.9-20.7-46.4-43.2-46.4S58 51.7 56.7 81.7v.3c0 2.2-.4 18.8 1.4 25.3 2 7 7.7 14.1 11.2 19 3.5 4.9 12.1 18.7 13.6 21.3s9.5 5.9 16.8 5.9c7.4 0 15.3-3.3 16.8-5.9zm-29.7 0c-.6-.3-1.2-.8-1.5-1.1-.1 0-.6-1-1.1-1.7-1.7-2.9-3.5-4.8-5.3-7.7s-3.6-5.8-5.5-8.7c-.9-1.4-2-2.9-3-4.3l-3.1-4c-2-2.7-3.9-5.4-5.5-8.2-.8-1.4-1.5-2.9-2-4.4s-.8-3-1.1-4.7c-.5-3.3-.7-6.7-.9-10-.1-1.7-.2-3.4-.2-5.1l-.1-5.1c.1-6.7 1.2-13.4 3.7-19.6.2-.4.3-.8.4-1.2l.6-1.1 1.1-2.2c.3-.8.9-1.4 1.3-2.1.4-.7.9-1.4 1.3-2.1 2-2.6 4.1-5.2 6.7-7.3.6-.5 1.2-1.1 1.9-1.6l2-1.4 1-.7 1.1-.6 2.1-1.2c.7-.4 1.5-.6 2.2-1 .8-.3 1.5-.7 2.3-.9 1.5-.5 3.1-1 4.7-1.3.8-.2 1.6-.4 2.4-.5l2.4-.3 1.2-.1h1.2l2.4-.1c.8 0 1.6.1 2.4.1.8.1 1.6 0 2.4.2 1.6.3 3.2.3 4.8.8l2.4.5 2.3.7c1.6.4 3 1.2 4.5 1.8.8.3 1.4.8 2.1 1.1.7.4 1.5.7 2.1 1.2 1.3.9 2.8 1.7 4 2.8 5.1 4.1 9.3 9.5 12 15.6s4.1 12.9 4.4 19.6c.1 6.8-.1 13.6-1.2 20.2-.3 1.6-.6 3.3-1.2 4.8-.5 1.6-1.2 3-2 4.5-1.6 2.9-3.6 5.6-5.6 8.2l-3.2 4c-1.1 1.3-2.1 2.8-3.1 4.2s-1.9 2.8-2.9 4.3l-2.8 4.3c-1.8 2.9-3.6 4.8-5.3 7.7l-1.3 2.1c0 .1-.5.6-1.1.9-1.1.7-2.6 1.4-4 1.9-2.9 1-6.1 1.7-9.1 1.7s-6.2-.5-9.1-1.4c-1.6-.2-3-.8-4.2-1.5z" fill="#c27b55" stroke-width="none" opacity="1"></path></g></g><g id="svga-group-mouth-single-move" transform="matrix(1,0,0,1,0,0)"><g id="svga-group-mouth-single"><path id="SvgjsPath11141" d="M86.62 127.55s2.05 2.59 5.62 4.12 13.46 4.37 22.92-4c0 0-1.83-1.01-4.25-2.59s-3.79-2.39-5.87-2.71-3.23.58-4.6.64c-1.37.05-2.88-.8-4.51-.66-3.58.3-9.36 4.5-9.36 4.5l.05.7z" fill="#da7c87" stroke-width="none" opacity="1" transform="translate(0 2)"></path><path id="SvgjsPath11142" d="M85.9 127.36c1.93 1.35 3.95.8 6.06.2 1.1-.31 1.84-.44 3.03-.4 1.4.05 1.65.32 2.77.82.84.37 1.64.61 2.55.48 1.07-.15 1.89-.82 2.89-1.19 2.34-.87 4.17.21 6.35.86 2.06.61 4.33 1.01 6.18-.31.5-.36.08-1.04-.47-.81-2.86 1.23-5.62-.26-8.45-.67-2.23-.32-3.49.46-5.64.81-2.45.4-4.48-1.02-6.92-1.03-2.61-.02-5.17 1.6-7.62 0-.78-.53-1.48.71-.73 1.24z" fill="#cb5f6c" stroke-width="none" opacity="1" transform="translate(0 2)"></path></g></g><g id="svga-group-eyes-left-move" transform="matrix(1,0,0,1,0,0)"><g id="svga-group-eyes-left"><g id="svga-group-eyesback-left"><path id="SvgjsPath11012" d="M89.8 98.6s-.1-2.2-.9-3.6-3.1-4.1-7.5-4.4c-4.4-.3-11.6 1.1-11.6 1.1s.9 1.5 2.3 2.8c1.4 1.3 4.7 3.3 7.1 3.6 2.4.3 6 .2 7.3.2 1.3-.1 3.3.3 3.3.3z" fill="#ffffff" stroke-width="none" opacity="1"></path></g><g id="svga-group-eyesiriswrapper-left" transform="matrix(1,0,0,1,0,0)"><g id="svga-group-eyesiriscontrol-left" transform="matrix(1,0,0,1,0,0)"><g id="svga-group-eyesiris-left"><path id="SvgjsPath11087" d="M80.1 88.4c2.8 0 5.2 2.3 5.2 5.2s-2.3 5.2-5.2 5.2-5.2-2.3-5.2-5.2 2.3-5.2 5.2-5.2z" fill="#591e19" stroke-width="none" opacity="1"></path><path id="SvgjsPath11088" d="M80.1 90.8c1.5 0 2.8 1.2 2.8 2.8s-1.2 2.8-2.8 2.8-2.8-1.2-2.8-2.8 1.2-2.8 2.8-2.8z" fill="#000000" stroke-width="none" opacity="1"></path><path id="SvgjsPath11089" d="m79.4 91.3-.6-.6c-.2-.2-.4-.3-.7-.3-.2 0-.5.1-.7.3-.2.2-.3.4-.3.7s.1.5.3.7l.6.6c.2.2.4.3.7.3.2 0 .5-.1.7-.3.3-.5.4-1.1 0-1.4zm2.5 4.7c.9 0 .9-1.4 0-1.4s-.8 1.4 0 1.4z" fill="#ffffff" stroke-width="none" opacity="1"></path></g></g></g><g id="svga-group-eyesfront-left"><path id="SvgjsPath11020" d="M69.4 94.6c0 6.4 4.7 11.5 10.6 11.5s10.6-5.2 10.6-11.5S85.9 83.1 80 83.1s-10.6 5.1-10.6 11.5zm.5-3s7.1-1.4 11.6-1.1c4.4.3 6.7 3 7.5 4.4.8 1.4.9 3.6.9 3.6s-2-.4-3.3-.4c-1.3 0-4.9.1-7.3-.2-2.4-.3-5.6-2.3-7.1-3.6-1.4-1.2-2.3-2.7-2.3-2.7z" fill="#f0c7b1" stroke-width="none" opacity="1"></path><path id="SvgjsPath11021" d="M68.9 92h.8c1.8 2.6 4.3 4.6 7.3 5.8 4.2 1.6 8.5.5 12.8 1.2.2 0 .4-.2.3-.4.2-3.7-2.5-6.6-5.8-7.8-4.8-1.8-10.5-.1-15.3.5-.6 0-.6.7-.1.7zm1.6-.1c3.3-.3 6.5-1.1 9.8-1 4.4.2 9.1 2.4 9.2 7.4-3-1.1-6.3-.1-9.4-.6-4-.6-7.2-2.7-9.6-5.8z" fill="#000000" stroke-width="none" opacity="1"></path></g></g></g><g id="svga-group-eyes-right-move" transform="matrix(1,0,0,1,0,0)"><g id="svga-group-eyes-right"><g id="svga-group-eyesback-right"><path id="SvgjsPath11013" d="M110.2 98.6s.1-2.2.9-3.6 3.1-4.1 7.5-4.4c4.4-.3 11.6 1.1 11.6 1.1s-.9 1.5-2.3 2.8c-1.4 1.3-4.7 3.3-7.1 3.6-2.4.3-6 .2-7.3.2-1.3-.1-3.3.3-3.3.3z" fill="#ffffff" stroke-width="none" opacity="1"></path></g><g id="svga-group-eyesiriswrapper-right" transform="matrix(1,0,0,1,0,0)"><g id="svga-group-eyesiriscontrol-right" transform="matrix(1,0,0,1,0,0)"><g id="svga-group-eyesiris-right"><path id="SvgjsPath11090" d="M119.9 88.4c2.8 0 5.2 2.3 5.2 5.2s-2.3 5.2-5.2 5.2-5.2-2.3-5.2-5.2 2.4-5.2 5.2-5.2z" fill="#591e19" stroke-width="none" opacity="1"></path><path id="SvgjsPath11091" d="M119.9 90.8c1.5 0 2.8 1.2 2.8 2.8s-1.2 2.8-2.8 2.8-2.8-1.2-2.8-2.8 1.3-2.8 2.8-2.8z" fill="#000000" stroke-width="none" opacity="1"></path><path id="SvgjsPath11092" d="m119.3 91.3-.6-.6c-.2-.2-.4-.3-.7-.3-.2 0-.5.1-.7.3-.2.2-.3.4-.3.7s.1.5.3.7l.6.6c.2.2.4.3.7.3.2 0 .5-.1.7-.3.3-.5.4-1.1 0-1.4zm2.5 4.7c.9 0 .9-1.4 0-1.4s-.9 1.4 0 1.4z" fill="#ffffff" stroke-width="none" opacity="1"></path></g></g></g><g id="svga-group-eyesfront-right"><path id="SvgjsPath11022" d="M120 83.1c-5.9 0-10.6 5.2-10.6 11.5s4.7 11.5 10.6 11.5 10.6-5.2 10.6-11.5-4.8-11.5-10.6-11.5zm7.8 11.3c-1.4 1.3-4.7 3.3-7.1 3.6-2.4.3-6 .2-7.3.2-1.3 0-3.3.4-3.3.4s.1-2.2.9-3.6 3.1-4.1 7.5-4.4c4.4-.3 11.6 1.1 11.6 1.1s-.9 1.4-2.3 2.7z" fill="#f0c7b1" stroke-width="none" opacity="1"></path><path id="SvgjsPath11025" d="M131.1 91.2c-4.9-.6-10.5-2.3-15.3-.5-3.3 1.3-6 4.1-5.8 7.8-.1.2 0 .4.3.4 4.3-.7 8.7.4 12.8-1.2 2.9-1.1 5.5-3.2 7.3-5.8h.8c.4.1.4-.6-.1-.7zm-11.2 6.5c-3.1.5-6.4-.5-9.4.6 0-5 4.8-7.2 9.2-7.4 3.3-.1 6.5.7 9.8 1-2.4 3.1-5.6 5.2-9.6 5.8z" fill="#000000" stroke-width="none" opacity="1"></path></g></g></g><g id="svga-group-facehighlight-single"></g><g id="svga-group-eyebrows-left-move" transform="matrix(1,0,0,1,0,0)"><g id="svga-group-eyebrows-left-rotate" transform="matrix(1,1.7453292519943295e-9,-1.7453292519943295e-9,1,1.4176201545978984e-7,-1.3606350535155798e-7)"><g id="svga-group-eyebrows-left"><path id="SvgjsPath10932" d="M67 82.5c.1-.3.3-.6.5-.8.1-.2.3-.5.5-.7.2-.2.4-.4.7-.6.5-.9 1.7-1.6 2.5-2.1.9-.5 1.8-.9 2.9-.9 1-.2 2.1-.2 2.9.2.4 0 .7.1 1 .3 1.1-.1 2.3.2 3.3.4 1.4.3 2.8.6 4.1 1.2 1.4 0 2.8.1 4.1.5h.2c.1 0 .2.1.2.1h.1c.1 0 .2.1.3.2.1.1 0 .3 0 .4v.1c0 .2 0 .4-.1.6 0 .6-.1 1.1-.5 1.6 0 .1 0 .2-.1.3-.1.5-.2 1.1-.7 1.4-.2.2-.5.3-.8.3-.1 0-.2 0-.3-.1h-.6c-.6.2-1.4 0-1.9-.1-.6-.1-1.2-.3-1.7-.6-1.8-.3-3.5-.8-5.3-1.2-1.6-.4-4-.4-5.4-1.3-.7.1-1.3.2-2 .2-.3 0-.7.1-1.1 0-.2 0-.5 0-.7-.2 0 0-.1 0-.1-.1h-.1l-.4.4c-.3.3-.7.7-1.2.8-.1.2-.3 0-.3-.3z" fill="#2a232b" stroke-width="none" opacity="1"></path><path id="SvgjsPath10933" d="M87.7 83c-.1-.6-.2-1.2-.4-1.7 0-.2.2-.3.3-.1.7 1 .9 2.8.2 3.9-.1.2-.3.1-.3-.1.1-.8.2-1.4.2-2zm-3.4-3.2c1.3.8 2.1 2.6 2.1 4 0 .2-.3.3-.3.1-.2-.7-.4-1.3-.7-1.9-.3-.7-.9-1.2-1.3-1.9-.3-.2 0-.4.2-.3zm-3.3-.7c2.2.8 3.8 3.2 4.2 5.3 0 .2-.2.2-.3.1-.4-1-.9-2-1.7-2.8-.7-.9-1.6-1.4-2.5-2.2-.2-.1.1-.5.3-.4zm-4.9-.8c2.4.6 4.8 2.6 5.8 4.7.1.2-.3.4-.4.2-.8-1-1.6-1.9-2.6-2.7-.9-.7-2-1.2-3-1.8-.2-.1-.1-.4.2-.4zM67.4 82c1.6-1.8 3.8-4.3 6.5-4 .2 0 .2.3 0 .3-2.6.2-4.3 2.5-6.3 3.9-.2.1-.4-.1-.2-.2z" fill="#3a353a" stroke-width="none" opacity="1"></path><path id="SvgjsPath10934" d="M90.9 80.6c-.1-.3-.5-.3-.6 0-.3 1.1-.3 2.4-1.2 3.3-.6.7-1.5.8-2.4.7.3-1.5.2-3.7-.8-4.9-.2-.2-.5-.1-.4.2 0 .8.4 1.6.5 2.4.1.8.2 1.5.2 2.3-.1 0-.2 0-.3-.1-.3-2-1.3-4.1-2.8-5.5 2.3.5 4.6.9 6.9 1.1.1 0 .2-.2.1-.2-2.6-.9-5.3-1.4-8-2-2.4-.5-5.1-1.4-7.6-1.5-2.1-.1-3.6.9-5 2.2-1.5 1.4-3.1 3.1-4.1 4.9l-.2.2c-.1.1-.2.3-.1.4 0 0 0 .1-.1.1-.2.4.3.7.6.4.1 0 .2 0 .3-.1 1.4-.7 2.5-1.4 4.1-1.6 1.3-.2 2.7-.1 4 .1 2.9.4 5.6 1.3 8.3 2.1 2.1.6 4.9 1.7 6.9.2 1.7-1 1.9-3.1 1.7-4.7zm-13.4 1.3c-.5-.1-1.1-.2-1.7-.3.1-1.1-.3-2.3-.8-3.3.7.6 1.4 1.2 2 1.9.6.6.9 1.4 1.5 2-.4-.1-.7-.2-1-.3zM70 79.5c1.2-1.1 2.5-1.7 4-1.9.2.8.6 1.6.7 2.4l.3 1.5c-.3 0-.7-.1-1-.1-.5-.9-1.3-1.8-2.3-2.1-.2-.1-.3.2-.2.4.4.4.9.8 1.3 1.2.1.2.2.3.4.5-1.9-.1-3.8.1-5.4.8.6-1 1.3-1.9 2.2-2.7zm15.2 4.8c-.2-.1-.4-.1-.6-.2-.4-.1-.9-.3-1.3-.4-.8-1.8-2.1-3.6-3.7-4.8-.2-.1-.4.1-.3.2 1.2 1.4 2.2 2.9 3.3 4.4-1.1-.4-2.2-.7-3.2-1.1-.2-1.1-1.2-2.2-1.9-3-.7-.7-1.5-1.4-2.4-1.9.4 0 .8.1 1.3.1 2 .3 4 .8 6 1.2v.1c.7 1.1 1.5 2.2 2.1 3.3.2.7.4 1.4.7 2.1z" fill="#1b141c" stroke-width="none" opacity="1"></path></g></g></g><g id="svga-group-eyebrows-right-move" transform="matrix(1,0,0,1,0,0)"><g id="svga-group-eyebrows-right-rotate" transform="matrix(1,1.7453292519943295e-9,-1.7453292519943295e-9,1,1.4176202967064455e-7,-2.127084570702209e-7)"><g id="svga-group-eyebrows-right"><path id="SvgjsPath10935" d="M133 82.5c-.1-.3-.3-.6-.5-.8-.1-.2-.3-.5-.5-.7-.2-.2-.4-.4-.7-.6-.5-.9-1.7-1.6-2.5-2.1-.9-.5-1.8-.9-2.9-.9-1-.2-2.1-.2-2.9.2-.4 0-.7.1-1 .3-1.1-.1-2.3.2-3.3.4-1.4.3-2.8.6-4.1 1.2-1.4 0-2.8.1-4.1.5h-.2c-.1 0-.2.1-.2.1h-.1c-.1 0-.2.1-.3.2-.1.1 0 .3 0 .4v.1c0 .2 0 .4.1.6 0 .6.1 1.1.5 1.6 0 .1 0 .2.1.3.1.5.2 1.1.7 1.4.2.2.5.3.8.3.1 0 .2 0 .3-.1h.6c.6.2 1.4 0 1.9-.1.6-.1 1.2-.3 1.7-.6 1.8-.3 3.5-.8 5.3-1.2 1.6-.4 4-.4 5.4-1.3.7.1 1.4.2 2 .2.3 0 .7.1 1.1 0 .2 0 .5 0 .7-.2 0 0 .1 0 .1-.1h.1l.4.4c.3.3.7.7 1.2.8.1.2.3 0 .3-.3z" fill="#2a232b" stroke-width="none" opacity="1"></path><path id="SvgjsPath10936" d="M112.3 83c.1-.6.2-1.2.4-1.7 0-.2-.2-.3-.3-.1-.7 1-.9 2.8-.2 3.9.1.2.3.1.3-.1-.1-.8-.2-1.4-.2-2zm3.4-3.2c-1.3.8-2.1 2.6-2.1 4 0 .2.3.3.3.1.2-.7.4-1.3.7-1.9.3-.7.9-1.2 1.3-1.9.3-.2 0-.4-.2-.3zm3.3-.7c-2.2.8-3.8 3.2-4.2 5.3 0 .2.2.2.3.1.4-1 .9-2 1.7-2.8.7-.9 1.6-1.4 2.5-2.2.2-.1-.1-.5-.3-.4zm4.9-.8c-2.4.6-4.8 2.6-5.8 4.7-.1.2.3.4.4.2.8-1 1.6-1.9 2.6-2.7.9-.7 2-1.2 3-1.8.2-.1.1-.4-.2-.4zm8.7 3.7c-1.6-1.8-3.8-4.3-6.5-4-.2 0-.2.3 0 .3 2.6.2 4.3 2.5 6.3 3.9.2.1.4-.1.2-.2z" fill="#3a353a" stroke-width="none" opacity="1"></path><path id="SvgjsPath10937" d="M110.6 85.3c2 1.5 4.8.4 6.9-.2 2.8-.8 5.5-1.8 8.3-2.1 1.3-.2 2.7-.3 4-.1 1.6.2 2.7.9 4.1 1.6.1.1.2.1.3.1.3.3.8 0 .6-.4 0 0 0-.1-.1-.1 0-.1 0-.3-.1-.4l-.2-.2c-1-1.8-2.6-3.5-4.1-4.9-1.4-1.3-2.9-2.3-5-2.2-2.5.1-5.2 1-7.6 1.5-2.7.6-5.4 1.1-8 2-.2.1-.1.2.1.2 2.3-.2 4.6-.6 6.9-1.1-1.5 1.4-2.5 3.5-2.8 5.5-.1 0-.2 0-.3.1.1-.8.1-1.5.2-2.3.1-.8.5-1.6.5-2.4 0-.2-.3-.3-.4-.2-1 1.2-1.1 3.4-.8 4.9-.9.1-1.7 0-2.4-.7-.8-.9-.9-2.2-1.2-3.4-.1-.3-.5-.3-.6 0 0 1.7.2 3.8 1.7 4.8zm10.9-3.2c.5-.6.9-1.4 1.5-2 .6-.7 1.3-1.3 2-1.9-.5 1-.9 2.3-.8 3.3-.6.1-1.2.2-1.7.3-.3.2-.6.3-1 .3zm10.8 0c-1.6-.7-3.6-.9-5.4-.8.1-.2.2-.3.4-.5.4-.5.9-.8 1.3-1.2.1-.1.1-.4-.2-.4-1 .3-1.8 1.2-2.3 2.1-.3 0-.7.1-1 .1l.3-1.5c.2-.8.5-1.6.7-2.4 1.4.2 2.7.8 4 1.9.8.9 1.5 1.8 2.2 2.7zm-16.7.2c.6-1.2 1.4-2.2 2.1-3.3v-.1c2-.4 4-.9 6-1.2.4-.1.9-.1 1.3-.1-.9.5-1.7 1.2-2.4 1.9-.7.8-1.7 1.9-1.9 3-1.1.3-2.2.7-3.2 1.1 1-1.5 2.1-2.9 3.3-4.4.1-.2-.1-.3-.3-.2-1.6 1.2-2.9 3-3.7 4.8-.4.1-.9.3-1.3.4-.2.1-.4.1-.6.2.2-.8.4-1.5.7-2.1z" fill="#1b141c" stroke-width="none" opacity="1"></path></g></g></g><g id="svga-group-beardwrap"><g id="svga-group-beard-single-move" transform="matrix(1,0,0,1,1,2)"><g id="svga-group-beard-single" transform="matrix(0.8499994000000002,0,0,0.8499994000000002,0,0)"></g></g></g><g id="svga-group-mustache-single-move" transform="matrix(1,0,0,1,0,0)"><g id="svga-group-mustache-single"></g></g><g id="svga-group-nose-single-move" transform="matrix(1,0,0,1,0,0)"><g id="svga-group-nose-single"><path id="SvgjsPath11122" d="M105.06 106.65c.56.92 2.64 3.61 3.09 4.9.45 1.29-.13 3.22-1.48 3.61s-3.61-.39-3.93-.19c-.32.19-1.87 2.06-2.58 1.93-.71-.13-2.64-2.13-3.03-2.13-.39 0-2.13.45-2.97.45-.84 0-2.9-.71-2.64-2.51.26-1.81 2.45-5.54 2.9-6.06.45-.52 1.48-2.32 1.74-3.42s.58-7.03.71-8.38c.13-1.35 1.35-2.97 2.58-3.09 1.23-.13 3.35.77 3.55 2.9.19 2.13.58 6.38.77 8.12.19 1.74.58 2.71 1.29 3.87z" fill="#f0c7b1" stroke-width="none" opacity="1" transform="translate(0 1)"></path><path id="SvgjsPath11123" d="M97.62 85.76c-.84 3.5-.96 7.24-1.34 10.81-.4 3.83-1.14 7.78-1.09 11.63 0 .31.48.39.55.07.78-3.52.88-7.26 1.24-10.84.39-3.82 1.1-7.79.98-11.63 0-.18-.29-.24-.34-.04z" fill="#c27b55" stroke-width="none" opacity="1" transform="translate(0 1)"></path><path id="SvgjsPath11124" d="M94.46 106.19c-1.03 1.37-1.9 2.87-2.65 4.41-.49 1-1.09 2.17-.77 3.32.53 1.89 2.93 2.49 4.5 1.58.47-.27.26-.99-.27-1-.92-.01-1.98.28-2.72-.5-.88-.94-.01-2.63.38-3.57.58-1.39 1.28-2.72 1.83-4.12.07-.19-.2-.26-.3-.12z" fill="#c27b55" stroke-width="none" opacity="1" transform="translate(0 1)"></path><path id="SvgjsPath11125" d="M94.31 113.98c2.84-.21 3.38 3.37 6.07 3.45 2.31.07 2.5-3.41 4.69-3.3.26.01.34-.35.13-.47-2.49-1.47-2.95 2.86-5.24 2.59-1.36-.16-2.32-2.16-3.54-2.73-.83-.39-1.43-.36-2.23.02-.22.09-.11.46.12.44z" fill="#c27b55" stroke-width="none" opacity="1" transform="translate(0 1)"></path><path id="SvgjsPath11126" d="M104.29 115.6c1.87.42 4.05-.16 4.49-2.24.22-1.04-.13-2.07-.67-2.95-.89-1.44-2.03-2.66-2.87-4.15-.14-.25-.49-.12-.51.14-.11 1.67 1.13 2.83 2.02 4.12.82 1.19 1.53 2.83.15 4-.63.54-1.83.44-2.6.59-.26.04-.25.43-.01.49z" fill="#c27b55" stroke-width="none" opacity="1" transform="translate(0 1)"></path><path id="SvgjsPath11127" d="M102.45 109.98c-.41-.74-1.47-.85-2.06-.26-.05.05-.24.29-.3.36-.07.09-.2.26-.23.29-.07.1-.12.21-.18.32l-.12.28c0-.01-.01.01-.03.05-.06.06-.12.13-.18.2-.18.19-.36.38-.5.6-.42.67-.08 1.42.48 1.84.87.65 2.13.13 2.74-.61.76-.89.96-2.03.38-3.07z" fill="#f8d5c3" stroke-width="none" opacity="1" transform="translate(0 1)"></path></g></g><g id="svga-group-hair-front"><path id="SvgjsPath11163" d="M99.9 58.5s-7.8-3.9-12.3-4.1C79.9 54.1 77.4 84 77.4 84s-3.8-13.2-.7-26.6c0 0-4.5 7.2-5.2 24.5 0 0-5.8-11.7-.2-27.5 0 0-6 8.3-7.3 37.7 0 0-1.5-6.9-1.5-9.9 0 0-2.3 16.2-1.3 24.5 0 0-2.5-4.5-3.6-10.6s-.8-9.3-.8-9.3-1 2.5-1.5 6.6c0 0-3.3-8.1-.7-20.7 0 0-3.5 8.6-4.3 14.4 0 0-1.3-5.6 1-16.1s7.2-18.3 7.2-18.3-3.1 3.6-7.3 10.9c0 0 1.1-13.5 15-24.9S86.8 31 86.8 31s-1.7-1.8-10.6-.2c0 0 5.8-3.1 14.6-3 8.8.2 10.9 5.1 10.9 5.1s3.8-4.3 12.4-5.8c0 0-2.5 2.1-3.3 3 0 0 4.3-1 11.9.3 0 0-3.6.3-4.6.8 0 0 7.1-.2 15.7 6.3s13.1 17 14.4 23.7c0 0-4.1-8.4-7.9-11.6 0 0 6.6 9.9 8.8 22.2l-2.3-3s2 8.3 1 17.5l-1.8-3.8s-.2 8.6-3.6 14.4l-.3-3.5s-.8 8.1-2.1 11.1c0 0 .2-17.4-1.7-24.7 0 0-.2 3.5-.5 6.1 0 0-1.7-12.9-4-16.1 0 0 .5 1.8-1.2 7.9 0 0-1.2-11.3-5.1-19.9 0 0 .3 12.4-.8 18.7 0 0-2.5-19.5-6.6-22.7 0 0 3 14.6-.2 24.7 0 0-1.4-23.6-7.3-24.6-6.1-.6-9 2.3-12.7 4.6z" fill="#2a232b" stroke-width="none" opacity="1"></path><path id="SvgjsPath11164" d="M77.7 83.4c-.1-5.9.4-11.7 2.1-17.4.7-2.5 1.5-5.6 2.9-7.9 3.2-5.1 7.6-4.4 12-2.7.3.1.4-.3.2-.5-5.6-2.9-10.2-2.5-13.1 3.5-3.6 7.6-5 16.6-4.6 24.9.1.4.5.4.5.1zM81 50.9c-6.3 5.7-5.9 15.3-5 23 0 .3.5.3.5 0-.2-8.3-.4-15.8 4.8-22.8.2-.2-.1-.4-.3-.2zm4.3-5C72.4 43.8 69 58.7 70.1 68.3c0 .2.2.2.2 0-.7-9.8 2.5-23.1 14.9-22 .2 0 .3-.3.1-.4zm15.2 11.6c6.7-3.8 13.7-6.3 16.8 3.5 1.8 5.7 2 11.5 2.2 17.4 0 .3.6.4.6.1 1-6.8.6-18.5-4.7-23.6-4.6-4.6-11.2-1-15.3 2.3-.2.1.2.5.4.3zm18.9-4c4.5 8.2 6.3 15.5 7 24.8 0 .4.5.4.6 0 .9-8.6-2.1-18.2-7.2-25.1-.2-.2-.6.1-.4.3zm6.7 3.1c3.4 6.9 4.7 13.4 6.4 20.7.1.2.4.2.4-.1.3-7.2-2.7-14.9-6.4-20.9-.2-.2-.5 0-.4.3zm-26.2-4.1c-2-2.8-4.9-5.3-8.3-6.4-.2-.1-.4.3-.2.4 3.1 1.6 5.8 3.4 7.9 6.3.4.2.8 0 .6-.3zm.8-5.5c-4.1-8.5-15.1-10.7-23.2-7.1-10.4 4.6-15.2 16-15.1 26.8 0 .3.5.3.5 0 .9-9.5 4.1-19.1 12.6-24.4 8.7-5.4 18.9-3.4 24.8 4.9.2.3.6.1.4-.2zM57.1 78.1c-1.1 7.7-.5 15.6 2.5 22.8.1.3.5.1.5-.2-1.9-7.5-3-14.7-2.5-22.5.1-.3-.4-.4-.5-.1zm4 27.2c-.1-6.1 0-12.1 0-18.2 0-.3-.5-.4-.5-.1-.9 6-.8 12.3 0 18.4 0 .3.5.2.5-.1zm-9.6-43.8C54.3 54.2 58 47.4 64 42.1c6-5.3 13-8.1 20.6-10.2.2-.1.2-.5-.1-.5C69 33.2 54.7 46.3 51.3 61.5c-.1.1.1.2.2 0zm.3 1.5c2.5-4.3 5.3-7.8 8.8-11.4.2-.3-.1-.8-.4-.5-3.9 2.8-7.2 7.2-9 11.7-.2.2.4.5.6.2zm-1.2 22.9c1.1-10.6 4.4-20.1 9.6-29.3.2-.3-.2-.5-.4-.2-5.9 8.8-9.1 19.1-9.8 29.6-.1.3.6.3.6-.1zm51.2-51c1.2-1.5 2.6-2.9 4.3-4 1.7-1.1 3.6-1.5 5.5-2.1.3-.1.3-.6-.1-.6-4.1-.1-8.2 2.9-10.1 6.4-.1.2.2.5.4.3zm6.6-1.8c17.1-3.6 30.8 12.9 36.2 27.1.1.4.7.2.6-.2-3.8-14.4-20.6-32.6-37-27.6-.4.2-.3.8.2.7zm31.9 28.5c1.6 1.7 3.3 3.4 4.7 5.3 1.3 1.7 2.4 3.6 3.8 5.3.2.2.5 0 .4-.2-1.4-4-5.2-8.1-8.5-10.8-.3-.2-.7.2-.4.4zm2.8 3.1c3.6 7.4 4 13.7 3.7 21.8 0 .3.4.3.5.1 2.4-7.1.3-16-3.7-22.1-.3-.4-.7-.2-.5.2zm-5.3 12.4c2.3 8.7 2.7 17.2 2.2 26.2 0 .3.6.4.6.1 1.4-8.8.3-17.9-2.4-26.4 0-.2-.4-.1-.4.1zM102 49.5c8.8-11.4 22.7-5.1 28.8 5.1.2.3.6 0 .4-.3-5.2-11-22.1-17.7-29.7-5.1-.1.4.3.6.5.3zm-.9-9.3c-.8-1.2-2-2.5-3.4-3-.2-.1-.3.2-.2.4.6.5 1.3.8 1.9 1.3.6.5 1 1 1.5 1.5.1.1.3-.1.2-.2zm37 25.1c2.7 6.8 3.6 13.8 4 21.1 0 .3.5.3.5 0 .4-7.4-1.3-14.4-4.1-21.2-.1-.2-.5-.1-.4.1z" fill="#1b141c" stroke-width="none" opacity="1"></path><path id="SvgjsPath11165" d="M98.1 54.6c-5.3-8.5-17.3-8.2-22.7-.1-.1.1.1.3.2.2 6.2-7.3 15.9-6.8 22 .3.2.3.7-.1.5-.4zM81.2 56c-2.6 4.5-3.8 9.4-3.3 14.6 0 .3.4.3.4 0 .1-5 1.1-9.9 3.2-14.5.1-.1-.2-.2-.3-.1zm17.3-7.7c-4.7-8.9-15.9-9.5-23.5-3.9C64.8 52 63.6 66.2 63.6 77.9c0 .3.4.3.5 0 .7-9.3.9-19.1 6.2-27.2 6.2-9.6 21.4-14.1 27.9-2.1.1.1.5-.1.3-.3zm-5.4-11c-7-2.5-15.3-1.5-20.8 3.7-.2.2.1.5.3.4 6.4-4 13-5.8 20.4-3.7.2.1.3-.3.1-.4zm-4.7-3.9c-1.8-.5-3.8-.5-5.6.3-.2.1-.1.4.1.3 1.8-.5 3.5-.7 5.3-.2.4.1.5-.3.2-.4zm13.9 20.1c4.9-3.9 10.2-5.2 16.3-4.6.4 0 .4-.5.1-.6-5.9-1.6-12.6.5-16.9 4.7-.3.3.2.8.5.5zm2.2-4.6c1.6-1.4 3.3-1.9 5.3-2.3.2-.1.2-.4-.1-.4-2.1 0-4.1 1.1-5.6 2.5-.2.1.2.4.4.2zm0-6.7c5.2-4.3 11.5-4.8 17.7-2.5.3.1.6-.4.2-.6-5.9-3.4-13.5-1.9-18.3 2.7-.2.3.2.6.4.4zm5.1-6c1.3-.9 2.9-1.2 4.5-1 .3 0 .3-.4.1-.5-1.7-.4-3.4.1-4.8 1.1-.3.2-.1.6.2.4zm27.9 24.3c4.4 9.2 5.4 17.8 6 27.8 0 .2.3.3.4.1 1.5-9.5-1.4-19.8-5.9-28.1-.2-.3-.6-.1-.5.2zm5.1-3c.4 1.4.7 3.1 1.4 4.4.1.3.5.1.5-.2-.2-1.5-.9-2.9-1.4-4.3-.2-.3-.6-.2-.5.1zM59.7 91c-.1-2.9-.1-5.8-.2-8.7 0-.2-.2-.2-.2 0 0 2.9.1 5.8.2 8.7-.1.2.2.2.2 0z" fill="#3a353a" stroke-width="none" opacity="1"></path></g><g id="svga-group-glasses-single-move" transform="matrix(1,0,0,1,0,0)"><g id="svga-group-glasses-single"></g></g></g></g></g><rect id="svga-credit-rect" width="200" height="15" x="0" y="185" fill="#ecf0f1" opacity="0.5" style="display: none;"></rect><text id="svga-credit-text" font-family="Avenir Next, Roboto, Helvetica, Arial, sans-serif" font-size="10px" text-anchor="start" font-weight="400" size="10px" anchor="start" weight="400" fill="#333333" x="33.40447998046875" y="182.60824704170227" style="display: none;"><tspan id="SvgjsTspan10926" dy="13" x="33.40447998046875">Created on AvatarMaker.com</tspan></text></g><defs id="SvgjsDefs10873"></defs></svg>